# xmcd
#
# Track frame offsets:
#	150
#	14962
#	25967
#	39685
#	50602
#	61925
#	73830
#	87325
#	97775
#	109457
#	121677
#	135787
#	146652
#	160987
#	172370
#	181972
#	196675
#	210752
#
# Disc length: 2967 seconds
#
# Revision: 2
# Processed by: cddbd v1.5.2PL0 Copyright (c) Steve Scherf et al.
# Submitted via: audiograbber 1.83.01
#
DISCID=fd0b9512
DTITLE=Joe Stampley - The Best Of
DYEAR=1900
DGENRE=Oldies
TTITLE0=All These Things 
TTITLE1=Cry Like A Baby
TTITLE2=I'm Still Loving You
TTITLE3=If You Touch Me
TTITLE4=Soul Song
TTITLE5=The Most Beautiful Girl
TTITLE6=Everything I Own
TTITLE7=The Nighttime And My Baby 
TTITLE8=Roll On Big Mama
TTITLE9=Too Far Gone
TTITLE10=Take Time To Know Her
TTITLE11=How Lucky Can One Man Be
TTITLE12=Penny
TTITLE13=Take Me Home To Somewhere
TTITLE14=Bring It On Home
TTITLE15=Hello Operator
TTITLE16=You Make Life Easy
TTITLE17=Just Good 'Ol Boys
EXTD=
EXTT0=
EXTT1=
EXTT2=
EXTT3=
EXTT4=
EXTT5=
EXTT6=
EXTT7=
EXTT8=
EXTT9=
EXTT10=
EXTT11=
EXTT12=
EXTT13=
EXTT14=
EXTT15=
EXTT16=
EXTT17=
PLAYORDER=
